<?xml version="1.0" encoding="utf-8"?>
<!-- Generator: Adobe Illustrator 22.1.0, SVG Export Plug-In . SVG Version: 6.00 Build 0)  -->
<svg version="1.1" id="Layer_1" xmlns="http://www.w3.org/2000/svg" xmlns:xlink="http://www.w3.org/1999/xlink" x="0px" y="0px"
	 viewBox="0 0 1024 330" style="enable-background:new 0 0 1024 330;" xml:space="preserve">
<style type="text/css">
	.st0{fill:#030303;}
	.st1{fill:#FDD823;}
	.st2{fill:#F29829;}
</style>
<g>
	<path class="st0" d="M239.4,202c0.9-2,3-2.5,4.4-4c1.6-1.6,3.7-2.6,5.5-3.9c3.6-2.7,7.8-4.5,11.8-6.2c3.8-1.6,7.8-2.9,11.9-3.7
		c3-0.6,6-0.9,9-1.4c2.9-0.4,5.7-0.3,8.6-0.5c1.5-0.1,2.9,0.5,4.3,0.6c1.4,0.2,3.2-0.5,4.2,0.2c1.4,0.9,3.1-0.3,4.1,1.2
		c3-0.1,5.7,1.1,8.3,2c4.8,1.7,9.4,3.7,13.8,6.2c7.3,4.1,13.2,9.7,18.7,15.7c4.5,4.9,7.9,10.5,10.6,16.6c2,4.4,3.5,9.1,4.7,13.8
		c0.6,2.5,0.9,5.1,1.4,7.6c0.5,2.6,0.4,5.1,0.5,7.6c0.1,2.5,0.3,5.1-0.1,7.5c-0.7,4.2-1.3,8.3-2.3,12.4c-1.1,4.5-2.9,8.7-4.6,12.9
		c-1.4,3.3-3.3,6.3-5.3,9.3c-1.5,2.4-3.4,4.6-5.2,6.7c-1.6,1.9-3.1,3.8-5,5.4c-4.5,4-9.2,7.8-14.6,10.7c-4.6,2.5-9.4,4.7-14.5,6
		c-1.3,0.3-2.5,0.9-3.8,1.2c-1.3,0.3-2.7,0.3-4,0.7c-2.7,0.7-5.5,1.1-8.3,1.2c-2.8,0.2-5.7,0.1-8.5,0c-1.7-0.1-3.3,0.3-5-0.5
		c-1.3-0.6-3.2,0.3-4.6-0.8c-5.2-0.1-9.9-2.5-14.7-4.1c-3.9-1.3-7.5-3.6-11-5.8c-3.9-2.3-7.5-5.1-10.6-8.4c-0.2-0.2-0.3-0.5-0.5-0.8
		c-0.1-0.7,0.2-1.2,0.7-1.7c2.2-2.3,4.7-4.4,6.5-7.1c2.3-3.4,4.6-6.7,6.6-10.4c2-3.7,3.2-7.7,5.1-11.3c-0.3-2.2,1.2-3.9,1.4-6
		c0.2-2,1-4,1.2-6c0.5-4.7,1-9.4,0.7-14.1c0-0.4,0-0.9,0-1.3c0-0.4,0.2-1,0-1.3c-1-1.1-0.5-2.5-0.6-3.7c-0.2-1.2-0.6-2.4-0.6-3.7
		c0-2.6-1-5.1-1.7-7.5c-1.8-6.3-4.7-12.3-8.2-17.9c-1.7-2.7-3.6-5.4-5.7-7.8C242.5,206,240.9,204.1,239.4,202z"/>
	<path class="st1" d="M237.4,307.6c-2.2,3.2-5.6,5-8.6,7.2c-3.1,2.3-6.4,4-9.8,5.6c-4,1.8-8,3.3-12.3,4.3c-3.6,0.9-7.3,1.4-11,2.1
		c-4,0.7-8,0.7-11.9,0.3c-3.4-0.3-7.1-0.2-10.3-1.8c-3.1,0.1-5.9-1.1-8.7-2.1c-6-2-11.6-4.8-16.9-8.3c-5.5-3.6-10.3-8-14.6-12.8
		c-3.3-3.7-5.9-7.9-8.5-12.2c-2.9-5-4.8-10.5-6.5-16c-0.8-2.6-1.9-5.3-1.6-8.2c-1.4-1.9-0.4-4.1-1-6.1c-0.6-2-0.3-4.3-0.3-6.4
		c0-1.6-0.1-3.1,0.5-4.7c0.5-1.3-0.4-3.2,0.2-4.5c0.7-1.5-0.1-3.2,1.2-4.4c-0.1-3,1.1-5.7,2-8.3c1.5-4.3,3.2-8.5,5.6-12.5
		c2.2-3.7,4.4-7.5,7.2-10.7c3.2-3.7,6.7-7.2,10.7-10.4c4.6-3.6,9.3-6.7,14.6-9.2c4-1.8,8-3.4,12.3-4.3c3.4-0.8,6.9-1.4,10.3-2
		c4.6-0.8,9.2-0.3,13.8-0.5c1.1-0.1,2.2,0.5,3.3,0.6c1.1,0.1,2.2,0.1,3.4,0.6c1.2,0.5,2.6,0.3,4,0.6c3.4,0.8,6.6,1.9,9.9,3.1
		c4.2,1.6,8.1,3.7,12,6c3.8,2.3,7.3,4.8,10.5,7.9c0.6,0.6,1.2,1,1.8,1.5c0,0.1,0,0.3,0,0.3c-2.4,2.6-4.8,5.2-7.1,7.9
		c-1,1.2-1.7,2.6-2.7,3.8c-2.4,3-3.9,6.4-5.6,9.8c-2.2,4.4-3.8,8.9-4.9,13.7c-0.6,2.4-1.4,4.8-1.2,7.3c-1.2,1.5-0.4,3.3-0.7,5
		c-0.3,1.7-0.8,3.2-0.7,5c0.2,2.2-0.2,4.4,0.6,6.6c0.5,1.4-0.4,3.3,0.2,4.5c0.9,1.5-0.2,3.3,1.2,4.4c-0.1,2.7,1.3,5.1,1.9,7.7
		c0.6,2.3,1.8,4.3,2.5,6.5c1.4,4.5,4,8.3,6.5,12c2.3,3.4,4.8,6.8,8,9.5C237.3,306.4,237.5,306.9,237.4,307.6z"/>
	<path class="st0" d="M549,0.7c31.4,0,62.9,0,94.7,0c-0.9,1.9-1.5,3.6-2.4,5.1c-2.2,3.7-4.4,7.3-6.5,11.1c-2.1,3.8-4.7,7.5-6.6,11.4
		c-1.7,3.5-4,6.6-5.7,10.1c-1.2,2.5-2.9,4.7-4.3,7.1c-1.9,3.3-3.5,6.9-5.6,10.1c-2.4,3.8-4.4,7.8-6.9,11.6
		c-2.1,3.2-3.6,6.8-5.7,10.1c-3,4.8-5.5,10-8.7,14.8c-1.1,1.7-1.9,3.6-2.9,5.4c-2.7,5.1-5.8,10-8.6,15.1c-2.3,4.2-4.6,8.4-7.2,12.4
		c-2.3,3.5-4.1,7.3-6.4,10.8c-2.3,3.6-4.1,7.4-6.2,11.2c-0.2,0.3-0.5,0.5-0.8,0.9c-0.8-1.3-1.6-2.6-2.4-3.9
		c-3.2-5.3-6-10.9-9.5-16.1c-1.4-2.1-2.3-4.5-3.5-6.7c-2-3.4-4.2-6.8-6.2-10.2c-1-1.7-1.9-3.6-2.9-5.4c-2.4-3.9-4.8-7.9-7-11.9
		c-1.9-3.5-4.1-6.8-5.9-10.3c-1.8-3.3-3.9-6.5-5.7-9.8c-1.3-2.2-2.4-4.5-3.6-6.7c-0.1-0.2-0.4-0.4-0.6-0.5c0-0.2,0-0.4,0-0.7
		c1.2-1.1,1.7-2.7,2.6-4c2.6-3.9,4.8-8.1,7.1-12.1c2.8-5.1,5.9-10,8.6-15.1c1-1.8,1.7-3.7,2.8-5.4c3.3-4.7,5.7-9.9,8.7-14.8
		c2.2-3.6,4.1-7.5,6.5-11.1C548.5,2.5,549.2,1.7,549,0.7z"/>
	<path class="st1" d="M511.6,65.6c0,0.2,0,0.4,0,0.7c-3.1,5.1-5.7,10.4-9,15.3c-1.4,2.1-2.3,4.5-3.5,6.7c-2,3.4-4.2,6.8-6.2,10.2
		c-1,1.7-1.9,3.6-2.9,5.4c-2.7,5.1-5.8,10-8.6,15.1c-2.3,4.2-4.7,8.4-7.2,12.4c-2.7,4.4-5.2,9-7.8,13.5c-0.5,0.9-1.1,1.7-1.7,2.8
		c-0.7-0.9-1.3-1.8-1.9-2.8c-3.1-5.3-5.9-10.7-9.2-15.9c-1.2-2-2.4-4-3.5-6.1c-2-3.7-4.1-7.3-6.3-10.8c-1-1.6-1.7-3.2-2.7-4.8
		c-2.2-3.3-3.9-6.9-5.9-10.3c-1.9-3.3-4-6.4-5.7-9.8c-1.7-3.3-3.8-6.5-5.6-9.8c-1.9-3.5-4-6.9-6-10.3c-1.1-1.8-2.2-3.7-3.2-5.6
		c-2.7-5.1-5.7-10.1-8.6-15.1c-2.7-4.7-5.6-9.3-8.3-14c-1.9-3.3-3.9-6.7-5.7-10.1c-2.7-4.9-5.7-9.7-8.5-14.5
		c-1.3-2.3-2.5-4.6-3.9-7.2c32.1,0,63.7,0,95.4,0c0.1,0.7,0,1.4,0.4,2.1c1.4,2.2,2.4,4.7,3.8,6.9c2.2,3.6,4.4,7.3,6.5,11.1
		c1.1,2,2.2,4.1,3.5,6.1c2.1,3.2,3.9,6.5,5.7,9.8c1.9,3.5,4,6.8,5.9,10.3c2.3,4.1,4.6,8.1,7,12.1C509,61.2,510.3,63.4,511.6,65.6z"
		/>
	<path class="st0" d="M692.6,291.8c0-36.9,0-73.1,0-109.3c6.3,0,12.5,0,18.8,0c0,48.6,0,97.3,0,146.1c-5.8,0-11.5,0-17.1,0
		c-24.2-36.5-48.3-72.9-72.4-109.3c0,0-0.1,0-0.1,0.1c-0.1,0.1-0.1,0.2-0.1,0.3c0,36.3,0,72.5,0,108.9c-6.3,0-12.5,0-18.9,0
		c0-48.6,0-97.3,0-146c5.5,0,11,0,17,0C643.9,218.5,668.1,254.9,692.6,291.8z"/>
	<path class="st0" d="M830.1,84c-10.5,0-20.7,0-31.2,0c0,21.2,0,42.3,0,63.5c-6.4,0-12.6,0-19,0c0-48.7,0-97.3,0-146.2
		c1.1,0,2.2,0,3.3,0c18.8,0,37.6,0,56.4,0c7,0,13.4,1.7,19.6,4.9c3.1,1.6,5.9,3.5,8.4,5.8c3.3,3,6.9,7.3,8.7,11.4
		c1.4,3.1,2.4,6.2,3.2,9.5c0.5,2,0.6,4,0.6,6c0,3,0.1,5.9,0,8.9c-0.2,4-1.3,7.9-2.7,11.7c-1.1,3-2.6,5.8-4.6,8.2
		c-2.1,2.6-4.6,4.9-7.1,7c-1.3,1.1-2.7,2.1-4.3,2.9c-1.4,0.7-2.6,1.5-4.1,2c-1.4,0.5-2.8,1.1-4.2,1.7c-0.8,0.3-1.7,0.6-2.7,1
		c2.4,4.6,4.8,9,7,13.4c1.3,2.4,2.3,5,3.7,7.3c2.9,4.9,5.1,10.2,7.9,15.1c2.2,3.9,4.1,7.9,6.2,11.9c2.9,5.5,5.7,11,8.6,16.4
		c0.1,0.3,0.2,0.6,0.4,1c-7.3,0-14.4,0-21.8,0c-1.4-2.8-3-5.7-4.4-8.6c-1.4-2.7-2.7-5.4-4.1-8.1c-4.5-8.8-9-17.7-13.5-26.5
		c-3.3-6.4-6.6-12.8-10-19.2C830.3,84.8,830.3,84.5,830.1,84z M798.9,66.9c1.1,0,2.2,0,3.3,0c11.9,0,23.8,0,35.7,0
		c2.8,0,5.4-0.7,8-1.3c5-1.3,9-4.2,11.8-8.3c2.2-3.2,3.5-7.2,3.6-11.2c0-0.7,0.3-1.4,0.4-2.1c0.5-2.5-0.3-4.9-0.8-7.2
		c-0.5-2.7-1.4-5.5-3.2-7.8c-1.5-2-3-3.9-5-5.5c-2.9-2.2-6.1-3.4-9.4-4.2c-2.5-0.6-5.2-0.9-7.9-0.9c-11.3,0.2-22.5,0.1-33.8,0.1
		c-1,0-1.9,0-2.8,0C798.9,34.7,798.9,50.7,798.9,66.9z"/>
	<path class="st0" d="M361.4,147.5c-7.2,0-14.2,0-21.5,0c-0.3-0.5-0.8-1.2-1.1-1.9c-5.2-9.6-9.8-19.6-14.9-29.2
		c-4.5-8.5-8.7-17.2-13.1-25.7c-1.2-2.3-2.6-4.4-3.9-6.6c-10.2,0-20.3,0-30.6,0c0,21.1,0,42.2,0,63.4c-6.4,0-12.7,0-19,0
		c0-48.6,0-97.2,0-146c0.7,0,1.5-0.1,2.4-0.1c19.1,0,38.2,0.1,57.4-0.1c3.6,0,7,1.1,10.6,1.4c1.2,1.2,3,0.5,4.3,1.5
		C333,5,334.7,5.2,336,6c3.6,1.9,7,4.1,9.9,7c3.6,3.6,6.3,7.6,8.3,12.3c1.2,2.8,1.9,5.8,2.6,8.8c1.1,4.6,0.8,9.3,0.5,13.8
		c-0.3,4.8-1.7,9.4-3.8,13.8c-2.4,4.9-5.6,9.3-9.8,12.6c-4,3.1-8.5,5.6-13.4,7.1c-1,0.3-1.9,0.6-2.8,0.8c1.4,2.6,2.9,5.3,4.3,8
		c3.5,6.7,7,13.5,10.4,20.3c2.3,4.5,4.5,9.1,7,13.5c2.8,4.9,5.2,10.1,7.8,15.1c1.3,2.5,2.8,5,4.1,7.5
		C361.4,146.7,361.3,147,361.4,147.5z M276.2,66.9c12.6,0,25,0,37.3,0c1.8,0,3.6,0.5,5.3-0.6c3.2,0.1,6-1.3,8.7-2.7
		c3.6-1.8,6.6-4.3,8.3-8.2c1.4-3.2,2.8-6.4,2.6-10.1c0-1,0.3-2,0.4-2.4c-0.2-1.2-0.5-2-0.4-2.6c0.3-2.1-0.3-4.1-0.8-5.9
		c-2-6.4-5.7-10.4-11.8-13.4c-3.4-1.7-7.2-2.6-11-2.6c-11.8-0.1-23.6,0-35.4,0c-1.1,0-2.1,0-3.2,0C276.2,34.6,276.2,50.7,276.2,66.9
		z"/>
	<path class="st0" d="M396.9,328.6c0-48.8,0-97.4,0-146.2c0.9,0,1.9,0,2.8,0c17.5,0,35,0,52.4,0c1.4,0,2.7,0,4,0.6
		c1.2,0.5,2.8-0.6,4,0.7c2.1-0.1,4,0.6,6,1.3c5.3,1.8,10.1,4.1,14.6,7.5c6.3,4.6,10.5,10.7,13.5,17.7c1.4,3.2,2.9,6.6,2.9,10.3
		c1.4,1.1,0.4,2.8,1,4.2c0.6,1.3,0,3,0.3,4.5c1.2,4.7,0.5,9.4,0.6,14.2c0.1,8.8-0.1,17.7,0.1,26.5c0.1,4.6-0.2,9.3-0.8,13.8
		c-0.8,6.3-2.2,12.4-4.8,18.3c-3,6.6-6.3,11.4-10.5,15c-5,4.1-10.5,7.5-16.8,9.2c-3.3,0.9-6.6,1.5-10,2.1c-5.9,1-11.9,0.4-17.8,0.5
		c-5.9,0.1-11.8,0-17.7,0C412.9,328.6,405,328.6,396.9,328.6z M415.8,311.5c9.6,0,19-0.1,28.4,0.1c3,0.1,5.9-1,8.9-0.7
		c1.1-1.1,2.6-0.4,3.9-0.8c5.5-1.9,10.7-4.3,14.7-8.8c3.3-3.6,5-7.9,6.4-12.5c1.1-3.6,1.1-7.4,1.9-11c0.4-1.9,0-3.9,0.1-5.9
		c0.1-2,0.6-4,0.6-6c0.1-4.7,0.1-9.4,0-14.1c-0.1-4.7,0.1-9.4-0.5-14.2c-0.5-4.1-0.6-8.2-1.3-12.2c-0.7-3.8-1.9-7.3-3.5-10.7
		c-1.6-3.6-4.6-6.3-7.5-8.6c-2.7-2.2-6.1-3.6-9.5-4.7c-3.6-1.1-7.3-1.9-11-1.9c-9.7-0.2-19.4-0.1-29.2-0.1c-0.8,0-1.7,0.1-2.5,0.1
		C415.8,236.9,415.8,274,415.8,311.5z"/>
	<path class="st0" d="M921.5,147.6c0-48.8,0-97.4,0-146.2c1,0,1.9,0,2.9,0c17.7,0,35.4,0,53.1,0c1.3,0,2.7-0.4,4,0.5
		c1,0.7,2.8-0.5,3.9,0.7c4.3,0,8.1,2.2,11.9,3.6c2.4,0.9,4.7,2.5,6.8,4.1c2.2,1.7,4.3,3.6,6.2,5.5c4.5,4.4,7.3,9.9,9.4,15.8
		c1,2.9,1.6,5.9,2.5,8.8c0.7,2.2,0.4,4.6,0.8,6.9c1.3,7.6,0.4,15.3,0.6,23c0.2,7.6,0,15.3,0.1,22.9c0,1.8-0.4,3.5-0.7,5.3
		c-0.3,1.7,0.4,3.4-0.6,5c-0.4,0.7,0,1.7-0.1,2.6c-0.1,0.7-0.5,1.3-0.6,2c-0.7,3.6-1.5,7.1-2.9,10.6c-1.5,3.6-3.1,7.1-5.6,10.1
		c-0.2,1.7-2,2.1-2.6,3.5c-0.6,1.4-2,2-3.1,3c-2.8,2.6-6.1,4.4-9.2,6.4c-0.9,0.6-2.1,0.7-3.1,1.2c-3.5,1.8-7.3,2.6-11.1,3.3
		c-1.9,0.4-3.9,0.1-5.6,0.7c-2,0.7-4,0.4-6,0.5c-2,0.1-3.9,0-5.9,0C951.7,147.6,936.8,147.6,921.5,147.6z M940.6,130.5
		c0.9,0,1.7,0,2.4,0c10.5-0.2,21,0.5,31.5-0.6c2.6-0.3,5.1-0.7,7.6-1.4c4.7-1.3,8.9-3.6,12.6-6.7c2.2-1.8,3.7-4.1,5-6.5
		c1.4-2.4,2.1-5.2,3-7.9c0.6-1.7,0.7-3.6,1.2-5.4c0.5-1.9,0.2-3.9,0.7-5.9c0.5-2.1,0.3-4.4,0.1-6.5c-0.2-2.3,0.7-4.4,0.7-6.6
		c0-4,0.1-8.1,0-12.1c-0.1-4,0.2-7.9-0.5-11.9c-0.6-3.4,0.2-7-0.7-10.5c-0.5-1.8-0.4-3.8-0.7-5.6c-0.2-1.2-0.7-2.3-1.1-3.5
		c-1.6-4.7-3.9-8.8-7.6-12.3c-3.3-3.2-7.2-5.2-11.4-6.6c-3.9-1.3-7.9-2-12-2c-5.9,0-11.8,0-17.7,0c-4.4,0-8.7,0-13.1,0
		C940.6,55.8,940.6,93,940.6,130.5z"/>
	<path class="st0" d="M851.9,227.5c-6.2,0-12.2,0-18.4,0c-0.4-1.3-0.9-2.7-1.2-4c-0.8-3.1-2-6-3.4-8.7c-1-1.8-2.1-3.6-3.7-5
		c-2.3-2-4.1-4.3-6.6-6.1c-2.8-2-6-2.9-9.1-4.1c-1.5-0.6-3.3-0.6-5-0.7c-1.6-0.1-3-1-4.6-0.7c-3.2,0.6-6.4,0.7-9.5,1.6
		c-3.7,1.2-7.1,3-10.3,5.1c-4.1,2.7-9.5,10.7-10.7,15.2c-0.4,1.5-0.5,3.1-0.7,4.6c-0.2,1.2-0.5,2.4-0.6,3.7
		c-0.1,1.2,0.3,2.5-0.1,3.6c-1,2.6-0.5,5.3-0.6,7.9c-0.1,11.6,0,23.2-0.1,34.7c0,1.8,0.6,3.5,0.7,5.3c0.2,1.8,0.1,3.5,0.5,5.3
		c0.5,2.2,0.8,4.4,1.4,6.6c0.7,2.6,2.2,4.8,3.4,7.1c0.6,1.1,1.7,1.9,2.5,2.9c3.2,3.9,7.4,6.3,12,8.3c2.6,1.1,5.2,2,8,2
		c0.9,0,2-0.4,2.7,0.6c0.1,0.2,0.6,0.1,0.9,0c1.1-0.2,2.2-0.5,3.3-0.6c1.2-0.1,2.8,0.4,3.5-0.1c1.2-1,2.5-0.3,3.7-0.8
		c4.2-1.7,8.5-3.2,11.7-6.6c2.2-0.8,2.9-3,4.4-4.3c1.6-1.5,2-3.7,3.5-5.1c0.6-0.6,2.5-7.6,2.7-8.4c0.2-1.2,0.5-2.4,0.6-3.7
		c0.1-1.2-0.3-2.5,0.1-3.6c1.3-3.9,0.1-7.9,0.7-11.6c-0.4-0.4-0.7-0.7-1-1c-11.3,0-22.8,0-34.4,0c0-5.7,0-11.3,0-17
		c17.8,0,35.6,0,53.6,0c0,0.9,0,1.9,0,2.8c0,9.5,0,19,0,28.5c0,2.6,0,5.4-0.7,7.9c-1.1,4-1.8,8.1-3.8,11.9c-2,3.9-4.3,7.4-7.1,10.9
		c-3.2,3.9-7.2,6.7-11.1,9.6c-3.4,2.5-10.6,5.6-15,6.5c-2.5,0.5-5.1,0.9-7.6,1.4c-2.6,0.5-5.1,0.2-7.6,0.6c-2.2,0.3-4.2-0.8-6.3-0.7
		c-2.1,0.1-4-0.9-6-1.2c-2.1-0.3-4-1.1-5.9-1.7c-4.2-1.3-7.9-3.7-11.5-6.2c-3.1-2.1-6-4.4-8.5-7.2c-1.8-2.1-3.5-4.4-5.1-6.7
		c-2-3.2-3.7-6.6-4.5-10.2c-0.6-2.7-1.3-5.4-1.6-8.3c-0.3-2.5,0-5.1-0.6-7.6c-1.1-5.2-0.4-10.3-0.6-15.5c-0.1-5.2,0-10.5,0-15.7
		c0-5.2,0-10.5,0-15.7c0-1.3,0.5-2.7,0.6-4c0.1-1.3-0.3-2.7,0.1-3.9c0.8-2.4,0.5-5,1.2-7.3c0.7-2.2,1.1-4.6,2-6.7
		c1.5-3.4,3-6.9,5.5-9.9c1.2-1.4,2.2-2.8,3.5-4.1c4.7-5,10.3-8.7,16.5-11.7c3.1-1.5,6.3-2.4,9.5-3.2c5.3-1.3,14.3-1.9,18.4-1.3
		c3.5,0.5,6.9,1.1,10.3,2c3.3,0.9,6.5,2.4,9.5,4c3.2,1.7,6.4,3.5,8.9,6.2c0.9,1,2.3,1.6,3.2,2.6c4.1,4.7,7.8,9.7,10.2,15.5
		c1.6,3.9,3.3,7.9,3.7,12.3C851.5,224.8,852,226,851.9,227.5z"/>
	<path class="st0" d="M168.6,0c1.4,0,2.8-0.1,4.3,0c2,0.1,4,0.3,6,0.7c1.8,0.3,3.6,0.8,5.4,1.3c1.8,0.6,3.6,1.3,5.4,1.9
		c4.7,1.7,8.6,4.7,12.6,7.6c6.4,4.7,10.9,10.9,14,18.1c1.2,2.7,1.8,5.6,2.4,8.5c0.8,4.3,0.8,8.6,1.4,12.9c0.6,4.9,0.3,9.7,0.5,14.5
		c0.1,4.8,0,9.6,0,14.4c0,4.9,0,9.8,0,14.7c0,1.5-1,2.8-0.7,4.3c0.2,1.4,0.3,2.9,0,4.2c-0.8,4.2-1,8.6-2.5,12.7
		c-1.5,4.3-3.3,8.3-6.1,11.9c-2.7,3.4-5.8,6.4-9,9.3c-2.2,2-4.7,3.6-7.4,5c-3.3,1.7-6.7,3.4-10.3,4.4c-1.7,0.4-3.5,0.7-5.1,1.2
		c-2,0.6-4.1,0-6,0.6c-1.9,0.7-3.8,0.5-5.7,0.5c-1.4,0-2.9-0.4-4.3-0.6s-3,0.5-4.3-0.7c-2.5,0.5-4.6-1.1-7-1.3
		c-1.5-0.1-2.4-1.7-4-1.3c-2.8-1.9-6-2.9-8.8-4.8c-3.1-2.1-5.7-4.7-8.5-7.2c-3.2-2.9-5.5-6.4-7.8-9.9c-1.8-2.8-2.6-6.2-3.4-9.4
		c-0.7-2.8-1.6-5.6-1.4-8.6c-1.2-2-0.5-4.2-0.7-6.3c-1.3-13.9-0.4-27.8-0.6-41.7c0-2,0.5-4,0.6-6c0.1-2.1-0.4-4.2,0.1-6.2
		c0.6-2.4,0.6-4.9,1.2-7.4c0.6-2.4,1.1-4.8,2-7c1.5-3.8,3.2-7.5,6-10.6c1.7-1.9,3.3-3.9,5.1-5.7c3-3.1,6.7-5.3,10.3-7.6
		c3.8-2.5,8.2-3.4,12.3-5.1c1.2-0.5,2.7-0.5,4-0.6c1.7-0.2,3.2-0.9,5-0.8C165.1,0.1,166.8,0,168.6,0z M201.4,74.2
		c0-3.8,0.1-7.6,0-11.5c-0.1-3.8,0.4-7.7-0.6-11.5c-0.5-2-0.1-4.2-0.6-6.3c-0.4-1.6-0.3-3.3-0.8-4.9c-0.7-2.1-1.1-4.4-2.2-6.3
		c-2.7-4.5-6.2-8.4-10.6-11.3c-5.3-3.4-11.1-5.3-17.4-5.3c-1.9,0-3.8,0.3-5.6,0.5c-3.2,0.3-6,1.3-8.8,2.6c-5.6,2.5-10,6.6-13.5,11.5
		c-1.2,1.7-2.2,3.7-2.8,5.7c-0.9,3-1.7,6.2-1.9,9.3c-0.2,3.4-0.7,6.8-0.8,10.2c-0.1,3.5,0,7,0,10.5c0,3.4,0,6.8,0,10.2
		c0,3.5,0.1,7,0,10.5c-0.2,3.5,0.5,6.8,0.7,10.2c0.1,1.6-0.1,3.1,0.6,4.7c0.6,1.4-0.3,3.2,0.8,4.6c0.7,5.7,3.7,10.2,7.4,14.3
		c2.4,2.6,5.4,4.6,11.7,7.4c2.5,1.1,5.1,1.6,7.7,1.9c2.7,0.3,5.5,0.2,8.2,0c1.6-0.1,3.3-0.4,4.9-0.9c4.1-1.3,7.9-3.2,11.4-5.9
		c3.8-2.9,6.4-6.4,8.5-10.6c1.9-3.8,2.5-8,3.2-12.1c0.6-3.9,0.6-7.9,0.7-11.8C201.5,84.7,201.4,79.4,201.4,74.2z"/>
	<path class="st0" d="M682.1,1.4c5.3,0,10.3,0,15.5,0c1,2.8,2.1,5.6,3.1,8.4c1.5,4.3,3.4,8.5,4.8,12.8c1.7,5.3,3.9,10.4,5.6,15.7
		c0.8,2.4,1.6,4.8,2.6,7.1c1,2.4,1.5,4.8,2.6,7.1c2.2,4.8,3.7,9.8,5.6,14.7c1.3,3.2,2.3,6.5,3.5,9.7c1.1,3.2,2.4,6.4,3.6,9.7
		c1.1,3,2,6.2,3.3,9.1c1.5,3.6,2.7,7.4,4.1,11.1c1.4,3.6,2.7,7.2,3.9,10.8c1.2,3.6,2.8,7,3.9,10.5c1.7,5.3,4.1,10.4,5.5,15.8
		c0.3,1.1,1,2.2,1.7,3.5c-6.9,0-13.4,0-20.2,0c-0.8-2.1-1.8-4.2-2.4-6.4c-0.7-2.5-1.9-4.7-2.6-7.1c-0.7-2.3-1.5-4.6-2.4-6.9
		c-1.2-2.8-1.9-5.8-2.9-8.6c-0.3-1-0.8-1.9-1.2-2.8c-19.9,0-39.7,0-59.8,0c-1.7,3.2-2.4,7-3.9,10.5c-1.5,3.4-2.3,7.1-3.8,10.6
		c-1.5,3.5-2.4,7.3-3.5,10.8c-6.9,0-13.5,0-20.4,0c1-2.9,1.9-5.7,3-8.3c1.8-4.4,3.2-8.9,5-13.3c1.3-3.3,2.7-6.6,3.7-9.9
		c1.6-5.3,4-10.4,5.6-15.7c0.9-2.9,2.3-5.8,3.3-8.8c1-3,2-6,3.3-8.8c2.1-4.8,3.1-10.1,5.8-14.7c1.3-6,4-11.5,6-17.2
		c1.7-5,3.5-9.9,5.5-14.8c1.3-3.2,2.3-6.5,3.5-9.7c0.7-1.7,1.4-3.4,1.9-5.1c0.5-1.7,1.1-3.2,1.7-4.9c1.3-3.3,2.4-6.7,3.6-10
		C680.8,4.6,681.5,3,682.1,1.4z M713.6,98.3c-0.1-0.7-0.1-1.3-0.3-1.7c-1.2-3.5-2.5-7-3.7-10.6c-1.2-3.4-2.1-7-3.5-10.3
		c-0.9-2.3-1.7-4.5-2.4-6.9c-0.8-2.4-1.8-4.7-2.6-7.1c-1.2-3.4-2-7-3.6-10.3c-1.2-2.5-2-5.1-2.8-7.7c-0.9-2.7-2.2-5.2-2.9-8
		c-0.4-1.7-1.1-3.3-1.8-5.3c-0.4,0.6-0.7,0.8-0.8,1c-0.9,3-1.5,6.2-2.8,9c-0.9,1.9-1.7,4-2.3,5.9c-0.6,2.2-1.7,4.1-2.2,6.3
		c-0.4,2.2-1.3,4.3-2.2,6.3c-1.7,3.8-2.7,7.8-4.3,11.7c-0.9,2.1-1.3,4.5-2.2,6.6c-1,2.2-1.7,4.5-2.4,6.9c-0.8,2.4-1.8,4.7-2.6,7.1
		c-0.8,2.4-1.7,4.7-2.5,7.1C681.7,98.3,697.5,98.3,713.6,98.3z"/>
	<path class="st0" d="M92.4,182.5c0,5.6,0,11.2,0,16.8c-24.4,0-48.7,0-73,0c-0.5,2.9-0.7,37.7-0.3,49.2c20.6,0,41.2,0,61.7,0
		c0.2,0.2,0.3,0.2,0.4,0.3c0.1,0.1,0.1,0.2,0.1,0.3c0,5.4,0,10.9,0,16.4c-20.7,0-41.4,0-61.9,0c-0.2,0.2-0.3,0.2-0.3,0.3
		c-0.1,0.1-0.1,0.2-0.1,0.3c0,20.7,0,41.5,0,62.3c-6.3,0-12.5,0-18.9,0c0-48.6,0-97.2,0-146C30.9,182.5,61.6,182.5,92.4,182.5z"/>
	<path class="st0" d="M92.5,1.7c0,5.5,0,10.9,0,16.4c-0.1,0.1-0.1,0.1-0.2,0.2c-0.1,0.1-0.2,0.1-0.3,0.1c-24.2,0-48.5,0-72.8,0
		c0,16.4,0,32.6,0,49c0,0,0,0,0.1,0.1c0.1,0.1,0.2,0.1,0.3,0.1c20.5,0,41,0,61.7,0c0,5.6,0,11.2,0,17c-20.6,0-41.3,0-62.1,0
		c0,21.1,0,41.9,0,62.9c-6.4,0-12.7,0-19,0c0-48.6,0-97.2,0-145.8C2.6,1.2,89.7,1.2,92.5,1.7z"/>
	<path class="st2" d="M237.4,307.6c0.1-0.7-0.1-1.2-0.7-1.7c-3.2-2.7-5.7-6-8-9.5c-2.5-3.8-5-7.6-6.5-12c-0.7-2.2-1.9-4.2-2.5-6.5
		c-0.7-2.6-2-5-1.9-7.7c-1.4-1.2-0.3-3-1.2-4.4c-0.7-1.1,0.3-3.1-0.2-4.5c-0.8-2.2-0.4-4.4-0.6-6.6c-0.2-1.7,0.4-3.3,0.7-5
		c0.3-1.6-0.5-3.4,0.7-5c-0.1-2.5,0.6-4.9,1.2-7.3c1.2-4.8,2.7-9.3,4.9-13.7c1.7-3.4,3.2-6.8,5.6-9.8c1-1.2,1.7-2.6,2.7-3.8
		c2.3-2.7,4.8-5.2,7.1-7.9c0.1-0.1,0-0.2,0-0.3c0.2,0,0.4,0,0.7,0c1.5,2,3.1,4,4.8,5.9c2.1,2.4,4,5.1,5.7,7.8
		c3.5,5.6,6.4,11.5,8.2,17.9c0.7,2.4,1.6,4.9,1.7,7.5c0,1.2,0.4,2.4,0.6,3.7c0.2,1.2-0.4,2.6,0.6,3.7c0.2,0.2,0,0.8,0,1.3
		c0,0.4,0,0.9,0,1.3c0.3,4.7-0.2,9.4-0.7,14.1c-0.2,2-1,4-1.2,6c-0.2,2.1-1.7,3.8-1.4,6c-2,3.6-3.1,7.7-5.1,11.3
		c-2,3.6-4.3,7-6.6,10.4c-1.9,2.7-4.3,4.8-6.5,7.1c-0.5,0.5-0.8,1-0.7,1.7C238.3,307.6,237.9,307.6,237.4,307.6z"/>
	<path class="st0" d="M541.8,182.4c6.3,0,12.5,0,18.8,0c0,48.7,0,97.3,0,146c0,0,0,0.1-0.1,0.1c-0.1,0.1-0.2,0.1-0.3,0.1
		c-6.1,0-12.2,0-18.4,0C541.8,279.9,541.8,231.3,541.8,182.4z"/>
	<path class="st2" d="M511.6,65.6c-1.3-2.2-2.6-4.4-3.9-6.5c-2.4-4-4.7-8.1-7-12.1c-1.9-3.4-4-6.8-5.9-10.3
		c-1.8-3.3-3.6-6.6-5.7-9.8c-1.3-1.9-2.3-4-3.5-6.1c-2.1-3.7-4.3-7.4-6.5-11.1c-1.4-2.2-2.4-4.7-3.8-6.9c-0.5-0.8-0.3-1.4-0.4-2.1
		c24.7,0,49.4,0,74.1,0c0.2,1.1-0.5,1.8-1,2.5c-2.4,3.6-4.3,7.4-6.5,11.1c-3,4.9-5.4,10-8.7,14.8c-1.1,1.6-1.9,3.6-2.8,5.4
		c-2.8,5.1-5.8,10-8.6,15.1c-2.3,4.1-4.5,8.2-7.1,12.1C513.3,63,512.7,64.5,511.6,65.6z"/>
</g>
</svg>
