<?xml version="1.0" encoding="utf-8"?>
<!-- Generator: Adobe Illustrator 22.1.0, SVG Export Plug-In . SVG Version: 6.00 Build 0)  -->
<svg version="1.1" id="Layer_1" xmlns="http://www.w3.org/2000/svg" xmlns:xlink="http://www.w3.org/1999/xlink" x="0px" y="0px"
	 viewBox="0 0 1536 384" style="enable-background:new 0 0 1536 384;" xml:space="preserve">
<style type="text/css">
	.st0{fill:#FFFFFF;}
	.st1{fill:#404041;}
	.st2{fill:#5D5D5D;}
	.st3{fill:#424242;}
	.st4{fill:#606060;}
	.st5{fill:#B2B2B2;}
	.st6{fill:#989898;}
	.st7{font-family:'Helvetica-Bold';}
	.st8{font-size:24px;}
	.st9{letter-spacing:-1;}
	.st10{fill:none;stroke:#404041;stroke-width:3;stroke-miterlimit:10;}
</style>
<g>
	<g>
		<g>
			<path class="st0" d="M112.6,214.3c-28.4,0-51.6-23.1-51.6-51.6s23.1-51.6,51.6-51.6c2.5,0,4.9,0.2,7.3,0.5
				c3.2-11.6,11-21.3,21.8-26.8c6-3,12.6-4.6,19.3-4.6c5.2,0,10.2,0.9,15,2.7c8.8-20.4,29-33.9,51.4-33.9c6.5,0,12.9,1.1,19.1,3.4
				c14,5.1,25.3,15.4,31.6,28.9c5.8,12.3,6.8,26.1,3.1,39c23.7,2.8,42.1,23.3,41.7,47.5c-0.4,25.6-21.5,46.4-47.1,46.4H112.6z"/>
			<path class="st1" d="M227.5,52c6,0,12.1,1,18.1,3.2c27.5,10,41.7,40.3,31.7,67.8c24.1,0.8,43.1,20.7,42.7,44.8
				c-0.4,24.1-20,43.4-44.1,43.5H112.6c-26.8,0-48.6-21.7-48.6-48.6c0-26.8,21.7-48.6,48.6-48.6c3.2,0,6.5,0.3,9.6,1
				c2.4-11.9,10.1-22.1,20.9-27.6c5.6-2.9,11.8-4.3,18-4.3c5.7,0,11.4,1.2,16.7,3.7C185.5,65.4,205.9,52,227.5,52 M227.5,46l0,6
				L227.5,46c-22.7,0-43.3,13.1-53,33.2c-4.3-1.3-8.8-2-13.4-2c-7.1,0-14.3,1.7-20.7,4.9c-10.8,5.5-18.9,14.9-22.6,26.2
				c-1.7-0.2-3.5-0.2-5.2-0.2c-30.1,0-54.6,24.5-54.6,54.6s24.5,54.6,54.6,54.6h163.4c13.2,0,25.7-5.2,35.1-14.4
				c9.4-9.3,14.7-21.7,14.9-34.9c0.2-13.2-4.7-25.8-13.9-35.4c-7.4-7.7-16.8-12.8-27.1-14.7c2.9-12.7,1.5-25.9-4.1-37.8
				c-6.7-14.3-18.5-25.1-33.3-30.5C241.1,47.2,234.4,46,227.5,46L227.5,46z"/>
		</g>
		<g>
			<path class="st2" d="M220.9,117.1L220.9,117.1c-0.9-5.4-13.5-9.7-28.9-9.7s-28,4.3-28.9,9.7l0,0H163v0.6v13.9v0.6v0.6v13.3v0.6
				v0.6v14.5h0.1c0.9,5.4,13.5,9.7,28.9,9.7s28-4.3,28.9-9.7h0.1v-14.5v-0.6v-0.6v-13.3v-0.6v-0.6v-13.9L220.9,117.1L220.9,117.1z"
				/>
			<g>
				<path class="st3" d="M192,157c-16,0-29-4.6-29-10.3v15.1h0.1c0.9,5.4,13.5,9.7,28.9,9.7s28-4.3,28.9-9.7h0.1v-15.1
					C221,152.4,208,157,192,157z"/>
				<path class="st3" d="M163,146.1v0.6C163,146.5,163,146.3,163,146.1L163,146.1z"/>
				<path class="st3" d="M220.9,146.1c0,0.2,0.1,0.4,0.1,0.6L220.9,146.1L220.9,146.1z"/>
			</g>
			<g>
				<path class="st4" d="M192,142.5c-16,0-29-4.6-29-10.3v15.1h0.1c0.9,5.4,13.5,9.7,28.9,9.7s28-4.3,28.9-9.7h0.1v-15.1
					C221,137.9,208,142.5,192,142.5z"/>
				<path class="st4" d="M163,131.6v0.6C163,132,163,131.8,163,131.6L163,131.6z"/>
				<path class="st4" d="M220.9,131.6c0,0.2,0.1,0.4,0.1,0.6L220.9,131.6L220.9,131.6z"/>
			</g>
			<ellipse class="st5" cx="192" cy="117.7" rx="29" ry="10.3"/>
			<g>
				<path class="st6" d="M192,128c-16,0-29-4.6-29-10.3v15.1h0.1c0.9,5.4,13.5,9.7,28.9,9.7s28-4.3,28.9-9.7h0.1v-15.1
					C221,123.4,208,128,192,128z"/>
				<path class="st6" d="M163,117.1v0.6C163,117.5,163,117.3,163,117.1L163,117.1z"/>
				<path class="st6" d="M220.9,117.1c0,0.2,0.1,0.4,0.1,0.6L220.9,117.1L220.9,117.1z"/>
			</g>
		</g>
		<text transform="matrix(1 0 0 1 149.4585 199.7863)" class="st1 st7 st8 st9">Recipes</text>
	</g>
	<g>
		<g>
			<path class="st1" d="M593.3,33.9h-95.1c-9.1,0-16.4,7.4-16.4,16.5v193.1c0,9.1,7.3,16.4,16.4,16.4h95.1c9.1,0,16.4-7.4,16.4-16.4
				V50.3C609.7,41.2,602.4,33.9,593.3,33.9z M522.3,43.9h46.9c1.2,0,2.1,1.8,2.1,4s-1,4-2.1,4h-46.9c-1.2,0-2.1-1.8-2.1-4
				C520.1,45.6,521.1,43.9,522.3,43.9z M545.7,243.6c-5.8,0-10.5-4.7-10.5-10.5c0-5.8,4.7-10.5,10.5-10.5c5.8,0,10.5,4.7,10.5,10.5
				C556.2,238.9,551.5,243.6,545.7,243.6z M597.4,207.6H494.1v-146h103.3C597.4,61.6,597.4,207.6,597.4,207.6z"/>
		</g>
		<text transform="matrix(1 0 0 1 519.0879 146.6364)" class="st1 st7 st8 st9">PWA</text>
	</g>
	<g>
		<g>
			<rect x="920.5" y="37.6" class="st0" width="103" height="53"/>
			<path class="st1" d="M1022,39.1v50H922v-50H1022 M1025,36.1h-3H922h-3v3v50v3h3h100h3v-3v-50V36.1L1025,36.1z"/>
		</g>
		<text transform="matrix(1 0 0 1 949.634 72.6364)" class="st1 st7 st8 st9">LED</text>
	</g>
	<g>
		<g>
			<rect x="1170.5" y="37.6" class="st0" width="103" height="53"/>
			<path class="st1" d="M1272,39.1v50h-100v-50H1272 M1275,36.1h-3h-100h-3v3v50v3h3h100h3v-3v-50V36.1L1275,36.1z"/>
		</g>
		<text transform="matrix(1 0 0 1 1179.9016 72.6364)" class="st1 st7 st8 st9">Plant Lit</text>
	</g>
	<g>
		<g>
			<rect x="1170.5" y="102.6" class="st0" width="303" height="53"/>
			<path class="st1" d="M1472,104.1v50h-300v-50H1472 M1475,101.1h-3h-300h-3v3v50v3h3h300h3v-3v-50V101.1L1475,101.1z"/>
		</g>
		<text transform="matrix(1 0 0 1 1178.6589 137.6364)" class="st1 st7 st8 st9">Plant temperature regulated</text>
	</g>
	<g>
		<g>
			<rect x="1170.5" y="166.6" class="st0" width="103" height="53"/>
			<path class="st1" d="M1272,168.1v50h-100v-50H1272 M1275,165.1h-3h-100h-3v3v50v3h3h100h3v-3v-50V165.1L1275,165.1z"/>
		</g>
		<text transform="matrix(1 0 0 1 1176.5618 201.6364)" class="st1 st7 st8 st9">Plant fed</text>
	</g>
	<g>
		<g>
			<rect x="920.5" y="102.6" class="st0" width="103" height="53"/>
			<path class="st1" d="M1022,104.1v50H922v-50H1022 M1025,101.1h-3H922h-3v3v50v3h3h100h3v-3v-50V101.1L1025,101.1z"/>
		</g>
		<text transform="matrix(1 0 0 1 937.8647 137.6364)" class="st1 st7 st8 st9">Heater</text>
	</g>
	<g>
		<g>
			<rect x="920.5" y="167.6" class="st0" width="103" height="53"/>
			<path class="st1" d="M1022,169.1v50H922v-50H1022 M1025,166.1h-3H922h-3v3v50v3h3h100h3v-3v-50V166.1L1025,166.1z"/>
		</g>
		<text transform="matrix(1 0 0 1 937.0688 202.6364)" class="st1 st7 st8 st9">Nozzle</text>
	</g>
	<g>
		<g id="surface1">
			<path class="st1" d="M785.1,38.9c0-1.8-1.4-3.2-3.2-3.2h-19.2c-1.8,0-3.2,1.4-3.2,3.2v185.6c0,1.8,1.4,3.2,3.2,3.2h19.2
				c1.8,0,3.2-1.4,3.2-3.2c0-3.5,2.9-6.4,6.4-6.4c3.5,0,6.4,2.9,6.4,6.4c0,1.8,1.4,3.2,3.2,3.2h38.4c1.8,0,3.2-1.4,3.2-3.2V38.9
				c0-1.8-1.4-3.2-3.2-3.2h-38.4c-1.8,0-3.2,1.4-3.2,3.2c0,3.5-2.9,6.4-6.4,6.4C788,45.3,785.1,42.4,785.1,38.9z M836.3,42.1v179.2
				h-12.8v-3.2h9.6v-6.4h-9.6v-6.4h9.6v-6.4h-9.6v-6.4h9.6v-6.4h-9.6v-6.4h9.6v-6.4h-9.6v-6.4h9.6v-6.4h-9.6v-6.4h9.6v-6.4h-9.6
				v-6.4h9.6v-6.4h-9.6v-6.4h9.6v-6.4h-9.6v-6.4h9.6v-6.4h-9.6v-6.4h9.6v-6.4h-9.6v-6.4h9.6v-6.4h-9.6v-6.4h9.6v-6.4h-9.6v-6.4h9.6
				v-6.4h-9.6v-6.4h9.6v-6.4h-9.6v-3.2H836.3z M803.9,42.1h13.2v179.2h-13.2c-1.5-5.7-6.6-9.6-12.4-9.6c-5.8,0-10.9,4-12.4,9.6
				h-13.2V42.1h13.2c1.5,5.7,6.6,9.6,12.4,9.6C797.4,51.7,802.5,47.7,803.9,42.1z"/>
		</g>
		<text transform="matrix(6.123234e-17 -1 1 6.123234e-17 801.2014 174.062)" class="st1 st7 st8 st9">Arduino</text>
	</g>
	<g>
		<g>
			<rect x="908.5" y="273.6" class="st0" width="128" height="78"/>
			<path class="st1" d="M1035,275.1v75H910v-75H1035 M1038,272.1h-3H910h-3v3v75v3h3h125h3v-3v-75V272.1L1038,272.1z"/>
		</g>
		<text transform="matrix(1 0 0 1 922.3684 308.6364)"><tspan x="0" y="0" class="st1 st7 st8 st9">Reservoir</tspan><tspan x="22.3" y="28.8" class="st1 st7 st8 st9">Level</tspan></text>
	</g>
	<g>
		<g>
			<line class="st10" x1="350.9" y1="138" x2="447.8" y2="138"/>
			<g>
				<polygon class="st1" points="356.9,146.7 324.4,138 356.9,129.3 				"/>
			</g>
			<g>
				<polygon class="st1" points="441.8,146.7 474.4,138 441.8,129.3 				"/>
			</g>
		</g>
	</g>
	<g>
		<g>
			<line class="st10" x1="635.9" y1="138" x2="732.8" y2="138"/>
			<g>
				<polygon class="st1" points="641.9,146.7 609.4,138 641.9,129.3 				"/>
			</g>
			<g>
				<polygon class="st1" points="726.8,146.7 759.4,138 726.8,129.3 				"/>
			</g>
		</g>
	</g>
	<g>
		<g>
			<line class="st10" x1="1022.4" y1="132" x2="1145.8" y2="132"/>
			<g>
				<polygon class="st1" points="1139.8,140.7 1172.4,132 1139.8,123.3 				"/>
			</g>
		</g>
	</g>
	<g>
		<g>
			<line class="st10" x1="1022.4" y1="64" x2="1145.8" y2="64"/>
			<g>
				<polygon class="st1" points="1139.8,72.7 1172.4,64 1139.8,55.3 				"/>
			</g>
		</g>
	</g>
	<g>
		<g>
			<line class="st10" x1="843.4" y1="64" x2="891.8" y2="64"/>
			<g>
				<polygon class="st1" points="885.8,72.7 918.4,64 885.8,55.3 				"/>
			</g>
		</g>
	</g>
	<g>
		<g>
			<line class="st10" x1="843.4" y1="129" x2="891.8" y2="129"/>
			<g>
				<polygon class="st1" points="885.8,137.7 918.4,129 885.8,120.3 				"/>
			</g>
		</g>
	</g>
	<g>
		<g>
			<line class="st10" x1="971.9" y1="272.5" x2="971.9" y2="249.1"/>
			<g>
				<polygon class="st1" points="980.6,255 971.9,222.5 963.1,255 				"/>
			</g>
		</g>
	</g>
	<g>
		<g>
			<line class="st10" x1="869.1" y1="240.3" x2="884.6" y2="255.7"/>
			<g>
				<polygon class="st1" points="867.2,250.6 850.3,221.5 879.5,238.3 				"/>
			</g>
			<g>
				<polygon class="st1" points="874.2,257.7 903.4,274.5 886.5,245.4 				"/>
			</g>
		</g>
	</g>
	<g>
		<g>
			<line class="st10" x1="1022.4" y1="195" x2="1145.8" y2="195"/>
			<g>
				<polygon class="st1" points="1139.8,203.7 1172.4,195 1139.8,186.3 				"/>
			</g>
		</g>
	</g>
</g>
</svg>
